<?xml version="1.0" standalone="no"?>
<!DOCTYPE svg PUBLIC "-//W3C//DTD SVG 1.1//EN" "http://www.w3.org/Graphics/SVG/1.1/DTD/svg11.dtd" >
<svg xmlns="http://www.w3.org/2000/svg">
<metadata></metadata>
<defs>
<font id="frybarec2bold" horiz-adv-x="512" >
<font-face units-per-em="2048" ascent="1638" descent="-410" />
<missing-glyph horiz-adv-x="1024" />
<glyph horiz-adv-x="0" />
<glyph unicode="&#xd;" horiz-adv-x="1024" />
<glyph unicode=" "  horiz-adv-x="1024" />
<glyph unicode="&#x09;" horiz-adv-x="1024" />
<glyph unicode="&#xa0;" horiz-adv-x="1024" />
<glyph unicode="0" horiz-adv-x="1320" d="M111 0v950q0 252 151 381q139 117 397 117t400 -117q152 -129 151 -381v-950h-1099zM311 162h697v469h-697v-469zM311 809h697v149q0 158 -95.5 248t-253.5 90t-253 -91t-95 -247v-149z" />
<glyph unicode="1" horiz-adv-x="1320" d="M121 680v156h1079v-156h-1079z" />
<glyph unicode="2" horiz-adv-x="1320" d="M125 1151q100 297 520 297q551 0 551 -498v-950h-203v958q0 158 -95 248t-253 90q-260 0 -330 -217z" />
<glyph unicode="3" horiz-adv-x="1320" d="M111 0v162h897v796q0 158 -95.5 248t-253.5 90q-260 0 -329 -217l-191 72q100 297 520 297q551 0 551 -498v-950h-1099z" />
<glyph unicode="4" horiz-adv-x="1320" d="M111 0v950q0 498 548 498q551 0 551 -498v-950h-202v958q0 158 -95.5 248t-253.5 90t-253 -90t-95 -248v-958h-200z" />
<glyph unicode="5" horiz-adv-x="1320" d="M111 0v950q0 254 149 381q141 117 399 117t400 -117q152 -127 151 -381v-950h-1099zM311 162h697v796q0 156 -95.5 247t-253.5 91t-253 -90t-95 -248v-796z" />
<glyph unicode="6" horiz-adv-x="1320" d="M111 0v950q0 498 548 498q551 0 551 -498v-319h-899v-631h-200zM311 809h697v149q0 158 -95.5 248t-253.5 90t-253 -90t-95 -248v-149z" />
<glyph unicode="7" horiz-adv-x="1320" d="M111 631v319q0 498 548 498q551 0 551 -498v-950h-202v631h-897zM311 809h697v149q0 158 -95.5 248t-253.5 90t-253 -90t-95 -248v-149z" />
<glyph unicode="8" horiz-adv-x="1320" d="M111 0v950q0 498 548 498q551 0 551 -498v-950h-202v631h-697v-631h-200zM311 809h697v149q0 158 -95.5 248t-253.5 90t-253 -90t-95 -248v-149z" />
<glyph unicode="9" horiz-adv-x="1320" d="M111 4v809h1099v-809h-1099zM311 166h697v469h-697v-469z" />
<glyph unicode=":" />
<glyph unicode=";" />
<glyph unicode="&#x3c;" />
<glyph unicode="=" />
<glyph unicode="&#x3e;" />
<glyph unicode="?" />
<glyph unicode="@" />
<glyph unicode="A" horiz-adv-x="1222" d="M0 1280v178h1171v-172q-66 -78 -370 -432q-117 -137 -352 -408q-82 -92 -82 -147q0 -51 47 -86t98 -35h289v-178h-273q-143 0 -239 76q-104 82 -105 221q0 111 92 213l431 479q84 96 249 291h-956z" />
<glyph unicode="B" horiz-adv-x="1222" d="M0 424h209q0 -117 78 -178q70 -55 188 -56h209q272 0 272 289q0 119 -90 191q-84 63 -204 63h-441v182h473q100 0 160 46q68 51 68 147q0 82 -78 125q-61 35 -150 35h-473v180h473q174 0 297 -78q139 -92 139 -258q0 -170 -165 -289q204 -131 204 -350q0 -229 -132 -351 t-363 -122h-205q-469 0 -469 424zM233 1655q0 41 32 67.5t73 26.5q39 0 70.5 -26.5t31.5 -67.5q0 -39 -31.5 -65.5t-70.5 -26.5q-41 0 -73 26.5t-32 65.5zM705 1655q0 41 31.5 67.5t72.5 26.5t71.5 -26.5t30.5 -67.5q0 -39 -30.5 -65.5t-71.5 -26.5t-72.5 26.5t-31.5 65.5z " />
<glyph unicode="C" />
<glyph unicode="D" horiz-adv-x="1228" d="M0 0v1460h705q197 0 325 -102q141 -113 141 -303q0 -197 -147 -314q-134 -110 -332 -110h-4h-479v-443h514q111 0 195 66q92 72 92 178h202q0 -205 -145 -321q-135 -111 -344 -111h-723zM209 825h496q104 0 184 67t80 169q0 104 -84 160q-70 47 -180 47h-496v-443z M233 1659q0 41 31 67.5t72 26.5t71.5 -26.5t30.5 -67.5q0 -39 -30.5 -65.5t-71.5 -26.5t-72 26.5t-31 65.5zM705 1659q0 41 30.5 67.5t71.5 26.5t72.5 -26.5t31.5 -67.5q0 -39 -31.5 -65.5t-72.5 -26.5t-71.5 26.5t-30.5 65.5z" />
<glyph unicode="E" horiz-adv-x="1382" d="M0 1278v172h1282v-172h-184l-344 -469q289 -10 413 -160q119 -141 119 -434v-215h-219v362q0 129 -104 205q-92 70 -226 70h-110l-469 -639l-156 115l856 1165h-858z" />
<glyph unicode="F" horiz-adv-x="1458" d="M0 920q131 538 666 538h2q346 0 547.5 -190.5t201.5 -534.5q0 -332 -147 -522q-162 -211 -484 -211q-227 0 -378 127v-246h-187v678h187q0 -176 107.5 -285.5t283.5 -109.5q213 0 319 194q82 154 82 387q0 250 -131 394q-136 151 -382 151h-3q-356 0 -479 -426z" />
<glyph unicode="G" horiz-adv-x="1191" d="M0 0v184h649q309 0 309 260q0 119 -81 179q-74 55 -197 55h-678v414q0 172 121 272q111 90 289 90h520v-178h-490q-98 0 -165.5 -62.5t-67.5 -162.5v-181h485q207 0 338 -104q144 -112 144 -315q0 -229 -150 -347q-133 -104 -371 -104h-655zM236 1655q0 41 30.5 67.5 t71.5 26.5t71.5 -26.5t30.5 -67.5q0 -39 -30.5 -65.5t-71.5 -26.5t-71.5 26.5t-30.5 65.5zM707 1655q0 41 30.5 67.5t71.5 26.5t71.5 -26.5t30.5 -67.5q0 -39 -30.5 -65.5t-71.5 -26.5t-71.5 26.5t-30.5 65.5z" />
<glyph unicode="H" horiz-adv-x="1288" d="M0 0l532 1454h224l532 -1454h-209l-434 1143l-436 -1143h-209z" />
<glyph unicode="I" horiz-adv-x="1468" d="M0 516v936h209v-936q0 -162 90 -250t252 -88q158 0 244 89t86 249v936h209v-879q0 -182 79 -282q81 -102 235 -102q16 0 34 1v-184q-123 0 -242 37q-145 43 -199 127q-45 -90 -200 -135q-117 -35 -248 -35q-549 0 -549 516z" />
<glyph unicode="J" horiz-adv-x="1382" d="M0 1268v180h915q467 0 467 -410q0 -186 -153 -299q-137 -100 -330 -100h-479v-639h-211v1268h-209zM420 819h495q100 0 181.5 63.5t81.5 161.5q0 102 -82 166q-76 57 -181 58h-495v-449z" />
<glyph unicode="K" horiz-adv-x="1202" d="M0 0v172h649q141 0 225 71.5t84 211.5q0 125 -75.5 195.5t-202.5 70.5h-678v383q0 166 127 258q111 80 283 80h520v-166h-490q-96 0 -161 -53q-72 -59 -72 -154v-168h485q215 0 344 -110q138 -117 138 -330q0 -461 -521 -461h-655z" />
<glyph unicode="L" horiz-adv-x="1241" d="M0 1280v178h1196v-178h-440q-145 0 -213 -31q-102 -47 -103 -174v-168h199q223 0 381 -112q178 -125 178 -340q0 -455 -493 -455h-207q-219 0 -351 109q-141 119 -141 333h209q0 -127 80 -196q74 -66 203 -66h207q147 0 210.5 57.5t63.5 202.5q0 285 -352 285h-406v389 q0 94 70 166h-291z" />
<glyph unicode="M" horiz-adv-x="1193" d="M0 756q0 225 159.5 384.5t385.5 159.5q190 0 340 -120v280h211v-1460h-211v334q-150 -121 -340 -121q-225 0 -385 159.5t-160 383.5zM203 756q0 -147 97 -261t245 -114q145 0 246 115q94 113 94 260q0 150 -94 260q-100 117 -246 117q-147 0 -244.5 -114t-97.5 -263z" />
<glyph unicode="N" horiz-adv-x="1171" d="M0 0v1464h199v-725q90 70 233 70h283v-627q104 0 176 58q80 59 80 159h200q0 -188 -135 -299q-127 -100 -321 -100h-213v637q-137 0 -217 -68q-86 -72 -86 -207v-362h-199z" />
<glyph unicode="O" horiz-adv-x="1263" d="M-6 412q0 186 151 299q137 100 330 100h479v463h-723v176h934v-1450h-706q-465 0 -465 412zM197 406q0 -102 82 -166q76 -59 180 -60h495v451h-495q-98 0 -180 -63.5t-82 -161.5z" />
<glyph unicode="P" horiz-adv-x="1361" d="M0 109l420 540q-135 47 -223 144q-98 109 -99 241q0 193 183 314q161 108 360 108h4q203 0 365 -108q184 -121 184 -314q0 -178 -164 -301q145 -78 203 -209q47 -106 47 -291v-233h-211v307q0 240 -244 295q-59 14 -106 14q-12 0 -45 -4q-31 -2 -47 0l-475 -612z M305 1034q0 -117 117 -188q100 -61 223 -62q125 0 225 62q117 71 117 188q0 115 -117 187q-100 63 -225 63q-123 0 -223 -63q-117 -72 -117 -187z" />
<glyph unicode="Q" />
<glyph unicode="R" horiz-adv-x="1185" d="M0 1090v350h205v-350q0 -168 78 -265q86 -104 249 -104q186 0 267 94q73 85 73 270v5v352h215v-1442h-215v614q-129 -71 -318 -71h-5q-293 0 -421 128t-128 419z" />
<glyph unicode="S" horiz-adv-x="1265" d="M0 449q0 233 195 356q164 104 411 104h373v365h-977v172h1196v-711h-592q-162 0 -266 -65q-125 -78 -125 -230q0 -268 234 -268h200q141 0 232 66q102 76 102 211h207q0 -233 -160 -349q-139 -100 -381 -100h-200q-215 0 -332 116.5t-117 332.5z" />
<glyph unicode="T" horiz-adv-x="1236" d="M0 0v1448h705q466 0 466 -408q0 -188 -151 -301q-137 -100 -332 -100h-479v-465h514q106 0 192 59q94 66 95 168h202q0 -195 -151 -303q-135 -98 -338 -98h-723zM209 819h496q100 0 178 62q86 65 86 163q0 102 -82 166q-76 57 -182 58h-496v-449z" />
<glyph unicode="U" horiz-adv-x="1458" d="M0 535l205 53q125 -420 479 -420q246 0 381 145.5t135 391.5q0 233 -84 385q-103 192 -315 192h-2q-176 0 -283.5 -108.5t-107.5 -284.5h-187q0 252 157 403.5t408 151.5q319 0 484 -209q147 -188 147 -516q0 -342 -201.5 -530.5t-547.5 -188.5q-537 0 -668 535z" />
<glyph unicode="V" />
<glyph unicode="W" horiz-adv-x="1193" d="M0 0v1448h219v-76q109 78 340 78q541 0 541 -537v-913h-295q-178 0 -306 114.5t-128 293.5q0 205 161 315q141 94 357 94v129q0 154 -89 243t-243 89q-164 0 -251 -89t-87 -253v-936h-219zM586 403q0 -223 298 -223h5v455h-58q-133 0 -186 -49q-59 -51 -59 -183z" />
<glyph unicode="X" />
<glyph unicode="Y" horiz-adv-x="1193" d="M0 0v1442h215v-76q117 82 328 82q557 0 557 -496v-952h-735v172h524v752q0 166 -88 258t-252 92q-166 0 -250 -98.5t-84 -266.5v-909h-215z" />
<glyph unicode="Z" horiz-adv-x="1247" d="M0 446q0 246 188 371q160 109 418 109h373v346h-977v186h1196v-721h-592q-391 0 -391 -299q0 -131 53.5 -191.5t180.5 -60.5h184q143 0 237 58q113 68 113 202h207q2 -446 -557 -446h-184q-449 0 -449 446zM246 1655q0 39 31.5 65.5t72.5 26.5t72 -26.5t31 -65.5 q0 -31 -36 -62.5t-67 -31.5q-41 0 -72.5 26.5t-31.5 67.5zM719 1655q0 39 30.5 65.5t71.5 26.5t72 -26.5t31 -65.5q0 -41 -31 -67.5t-72 -26.5t-71.5 26.5t-30.5 67.5z" />
<glyph unicode="[" />
<glyph unicode="\" />
<glyph unicode="]" />
<glyph unicode="^" />
<glyph unicode="_" />
<glyph unicode="`" />
<glyph unicode="a" />
<glyph unicode="b" />
<glyph unicode="c" />
<glyph unicode="d" />
<glyph unicode="e" horiz-adv-x="309" d="M0 0v1446h209v-1446h-209z" />
<glyph unicode="f" />
<glyph unicode="g" />
<glyph unicode="h" />
<glyph unicode="i" />
<glyph unicode="j" horiz-adv-x="1462" d="M0 555v915h209v-915q0 -170 86 -264q88 -100 256 -101q162 0 248 103q82 96 82 262v915h209v-852q0 -193 75 -299q79 -116 236 -116q18 0 37 2v-199q-125 0 -244 39q-143 49 -197 137q-45 -96 -196 -145q-119 -37 -252 -37q-549 0 -549 555zM74 1659v100h944v-100h-944z " />
<glyph unicode="k" />
<glyph unicode="l" />
<glyph unicode="m" />
<glyph unicode="n" />
<glyph unicode="o" horiz-adv-x="1433" d="M0 715q0 328 143 518q160 213 478 213q123 0 198.5 -20.5t184.5 -86.5v234h200v-678h-198q0 176 -107.5 281.5t-284.5 105.5q-92 0 -178 -53q-217 -133 -217 -502q0 -256 131 -403q137 -154 389 -154q190 0 318 119q123 113 157 301l205 -49q-139 -541 -667 -541 q-342 0 -543 184q-209 193 -209 531z" />
<glyph unicode="p" horiz-adv-x="1232" d="M0 442h209q-2 -264 266 -264h209q272 0 272 268q0 127 -82.5 206t-211.5 79h-441v170h473q94 0 161 51.5t67 143.5q0 86 -74 137q-63 43 -154 43h-473v170h473q168 0 297 -84q147 -94 148 -254q0 -176 -174 -293q204 -139 204 -375q0 -221 -141 -336q-129 -104 -354 -104 h-205q-221 0 -342 111q-127 113 -127 331z" />
<glyph unicode="q" />
<glyph unicode="r" />
<glyph unicode="s" />
<glyph unicode="t" />
<glyph unicode="u" />
<glyph unicode="v" />
<glyph unicode="w" horiz-adv-x="1472" d="M0 967q119 544 666 544h2q369 0 559 -191t190 -560q0 -760 -631 -760q-264 0 -414.5 150.5t-150.5 416.5h187q0 -184 103 -284.5t288 -100.5q401 0 401 592q0 549 -516 549q-201 0 -319 -111q-106 -100 -160 -305zM244 1647v100h944v-100h-944z" />
<glyph unicode="x" />
<glyph unicode="y" horiz-adv-x="1177" d="M0 0v1454h215v-82q117 88 328 88q557 0 557 -532v-928h-735v184h524v713q0 172 -82 270q-90 104 -258 105q-170 0 -256 -113q-78 -102 -78 -278v-881h-215zM78 1647v100h946v-100h-946z" />
<glyph unicode="z" />
<glyph unicode="{" />
<glyph unicode="|" />
<glyph unicode="}" />
<glyph unicode="~" />
<glyph unicode="&#xa0;" />
<glyph unicode="&#xa1;" />
<glyph unicode="&#xa2;" />
<glyph unicode="&#xa3;" />
<glyph unicode="&#xa4;" />
<glyph unicode="&#xa5;" />
<glyph unicode="&#xa6;" />
<glyph unicode="&#xa7;" />
<glyph unicode="&#xa8;" />
<glyph unicode="&#xa9;" />
<glyph unicode="&#xaa;" />
<glyph unicode="&#xab;" />
<glyph unicode="&#xac;" />
<glyph unicode="&#xae;" />
<glyph unicode="&#xaf;" />
<glyph unicode="&#xb0;" />
<glyph unicode="&#xb1;" />
<glyph unicode="&#xb2;" />
<glyph unicode="&#xb3;" />
<glyph unicode="&#xb4;" />
<glyph unicode="&#xb6;" />
<glyph unicode="&#xb7;" />
<glyph unicode="&#xb8;" />
<glyph unicode="&#xb9;" />
<glyph unicode="&#xba;" />
<glyph unicode="&#xbb;" />
<glyph unicode="&#xbc;" />
<glyph unicode="&#xbd;" />
<glyph unicode="&#xbe;" />
<glyph unicode="&#xbf;" />
<glyph unicode="&#xc0;" />
<glyph unicode="&#xc1;" />
<glyph unicode="&#xc2;" />
<glyph unicode="&#xc3;" />
<glyph unicode="&#xc4;" />
<glyph unicode="&#xc5;" />
<glyph unicode="&#xc6;" />
<glyph unicode="&#xc7;" />
<glyph unicode="&#xc8;" />
<glyph unicode="&#xc9;" />
<glyph unicode="&#xca;" />
<glyph unicode="&#xcb;" />
<glyph unicode="&#xcc;" />
<glyph unicode="&#xcd;" />
<glyph unicode="&#xce;" />
<glyph unicode="&#xcf;" />
<glyph unicode="&#xd0;" />
<glyph unicode="&#xd1;" />
<glyph unicode="&#xd2;" />
<glyph unicode="&#xd3;" />
<glyph unicode="&#xd4;" />
<glyph unicode="&#xd5;" />
<glyph unicode="&#xd6;" />
<glyph unicode="&#xd7;" />
<glyph unicode="&#xd8;" />
<glyph unicode="&#xd9;" />
<glyph unicode="&#xda;" />
<glyph unicode="&#xdb;" />
<glyph unicode="&#xdc;" />
<glyph unicode="&#xdd;" />
<glyph unicode="&#xde;" />
<glyph unicode="&#xdf;" />
<glyph unicode="&#xe0;" />
<glyph unicode="&#xe1;" />
<glyph unicode="&#xe2;" />
<glyph unicode="&#xe3;" />
<glyph unicode="&#xe4;" />
<glyph unicode="&#xe5;" />
<glyph unicode="&#xe6;" />
<glyph unicode="&#xe7;" />
<glyph unicode="&#xe8;" />
<glyph unicode="&#xe9;" />
<glyph unicode="&#xea;" />
<glyph unicode="&#xeb;" />
<glyph unicode="&#xec;" />
<glyph unicode="&#xed;" />
<glyph unicode="&#xee;" />
<glyph unicode="&#xef;" />
<glyph unicode="&#xf0;" />
<glyph unicode="&#xf1;" />
<glyph unicode="&#xf2;" />
<glyph unicode="&#xf3;" />
<glyph unicode="&#xf4;" />
<glyph unicode="&#xf5;" />
<glyph unicode="&#xf6;" />
<glyph unicode="&#xf7;" />
<glyph unicode="&#xf8;" />
<glyph unicode="&#xf9;" />
<glyph unicode="&#xfa;" />
<glyph unicode="&#xfb;" />
<glyph unicode="&#xfc;" />
<glyph unicode="&#xfd;" />
<glyph unicode="&#xfe;" />
<glyph unicode="&#xff;" />
<glyph unicode="&#x152;" />
<glyph unicode="&#x153;" />
<glyph unicode="&#x178;" />
<glyph unicode="&#x2c6;" />
<glyph unicode="&#x2dc;" />
<glyph unicode="&#x2000;" horiz-adv-x="879" />
<glyph unicode="&#x2001;" horiz-adv-x="1759" />
<glyph unicode="&#x2002;" horiz-adv-x="879" />
<glyph unicode="&#x2003;" horiz-adv-x="1759" />
<glyph unicode="&#x2004;" horiz-adv-x="586" />
<glyph unicode="&#x2005;" horiz-adv-x="439" />
<glyph unicode="&#x2006;" horiz-adv-x="293" />
<glyph unicode="&#x2007;" horiz-adv-x="293" />
<glyph unicode="&#x2008;" horiz-adv-x="219" />
<glyph unicode="&#x2009;" horiz-adv-x="351" />
<glyph unicode="&#x200a;" horiz-adv-x="97" />
<glyph unicode="&#x2013;" />
<glyph unicode="&#x2014;" />
<glyph unicode="&#x2018;" />
<glyph unicode="&#x2019;" />
<glyph unicode="&#x201a;" />
<glyph unicode="&#x201c;" />
<glyph unicode="&#x201d;" />
<glyph unicode="&#x201e;" />
<glyph unicode="&#x2022;" />
<glyph unicode="&#x2026;" />
<glyph unicode="&#x202f;" horiz-adv-x="351" />
<glyph unicode="&#x2039;" />
<glyph unicode="&#x203a;" />
<glyph unicode="&#x205f;" horiz-adv-x="439" />
<glyph unicode="&#x2122;" />
<glyph unicode="&#x25fc;" horiz-adv-x="1024" d="M0 0z" />
</font>
</defs>
</svg>
